<svg height="36" viewBox="0 0 238 36" width="238" xmlns="http://www.w3.org/2000/svg"><g fill="none" fill-rule="evenodd" transform="translate(.75 .75)"><path d="m14.933 3.25c-7.907 0-14.318 6.37-14.318 14.228 0 7.859 6.411 14.228 14.318 14.228 7.908 0 14.319-6.37 14.319-14.228 0-7.859-6.411-14.228-14.319-14.228" fill="#d71920"/><path d="m3.39 17.478c0 6.333 5.17 11.47 11.543 11.47 6.374 0 11.543-5.137 11.543-11.47 0-6.335-5.17-11.47-11.543-11.47s-11.542 5.135-11.542 11.47z" fill="#fdb913"/><path d="m6.355 17.462c0 4.708 3.84 8.525 8.578 8.525s8.579-3.817 8.579-8.525-3.84-8.524-8.579-8.524c-4.737 0-8.578 3.816-8.578 8.524z" fill="#008fd5"/><path d="m9.178 17.463c0 3.159 2.576 5.719 5.755 5.719 3.18 0 5.756-2.56 5.756-5.72 0-3.158-2.577-5.719-5.756-5.719s-5.755 2.56-5.755 5.72z" fill="#e4368e"/><path d="m12.063 17.54c0-1.575 1.285-2.851 2.87-2.851 1.586 0 2.87 1.276 2.87 2.851 0 1.576-1.284 2.852-2.87 2.852-1.585 0-2.87-1.276-2.87-2.852z" fill="#fff"/><path d="m63.614 15.319c.689-3.12 3.482-5.337 6.697-5.314 3.174-.019 5.91 2.216 6.508 5.314zm6.556-8.914c-2.938-.045-5.748 1.184-7.7 3.366-1.918 2.026-2.97 4.714-2.933 7.496.031 2.844 1.153 5.57 3.137 7.62 1.954 2.073 4.701 3.223 7.559 3.164 4.504.03 8.522-2.807 9.974-7.044h-4.188c-1.143 2.109-3.376 3.408-5.786 3.366-3.36.035-6.24-2.376-6.775-5.672h17.454v-.624c.121-2.421-.497-4.821-1.772-6.888-1.963-3.006-5.333-4.809-8.939-4.784h-.031zm22.52.265c-2.246-.08-4.393.917-5.772 2.68v-2.338h-3.591v20.558h3.732v-9.352c0-5.314 1.302-7.994 5.27-7.994 3.434 0 5.002 2.103 5.002 6.42v10.909h3.733v-11.705c0-5.968-3.042-9.178-8.39-9.178m-45.197 3.397c2.67-.156 5.163 1.336 6.273 3.756h4.078c-1.243-4.465-5.378-7.52-10.037-7.418-2.99-.014-5.84 1.239-7.842 3.444-1.92 2.013-2.978 4.69-2.948 7.465.033 2.844 1.154 5.57 3.136 7.62 1.947 2.059 4.686 3.193 7.528 3.117 4.893 0 8.359-2.603 10.084-7.543h-4.077c-1.018 2.402-3.385 3.962-6.007 3.959-3.803-.028-6.861-3.117-6.831-6.895.001-.101.004-.202.01-.305-.21-3.764 2.689-6.985 6.478-7.194.051-.003.103-.004.155-.006m151.541 17.501h3.701v-20.555h-3.701zm0-22.955h3.701v-4.255h-3.701zm17.487 2.057c-2.246-.08-4.393.917-5.772 2.68v-2.338h-3.575v20.558h3.732v-9.352c0-5.314 1.302-7.994 5.27-7.994 3.434 0 5.002 2.103 5.002 6.42v10.909h3.733v-11.705c0-5.968-3.043-9.178-8.39-9.178m-86.161 8.649c.69-3.126 3.491-5.344 6.712-5.314 3.174-.019 5.911 2.216 6.508 5.314zm6.587-8.914c-2.938-.045-5.748 1.184-7.7 3.366-1.918 2.026-2.97 4.714-2.933 7.496.033 2.844 1.154 5.568 3.136 7.62 1.958 2.078 4.713 3.228 7.575 3.164 4.504.03 8.522-2.807 9.974-7.044h-4.203c-1.14 2.104-3.365 3.402-5.77 3.366-3.36.035-6.241-2.376-6.776-5.672h17.408v-.624c.12-2.421-.497-4.821-1.772-6.888-1.962-3.007-5.332-4.812-8.94-4.784zm48.319 18.109c-3.803-.012-6.876-3.084-6.863-6.863 0-.114.003-.224.01-.338-.2-3.79 2.73-7.022 6.545-7.222.091-.004.184-.007.275-.007 3.778.009 6.83 3.06 6.818 6.813 0 .128-.004.257-.012.385.218 3.773-2.685 7.005-6.48 7.221-.097.005-.196.01-.293.011m-.251-18.155c-2.905.039-5.659 1.289-7.59 3.444-1.927 2.021-2.977 4.711-2.933 7.496.03 2.842 1.154 5.568 3.136 7.62 1.964 2.101 4.736 3.268 7.62 3.209 2.967.006 5.792-1.26 7.75-3.474 1.862-2.107 2.888-4.817 2.885-7.62-.013-2.816-1.139-5.515-3.137-7.513-2.01-2.05-4.788-3.18-7.669-3.117m-23.712 18.11c-4.01-.001-7.261-3.23-7.261-7.217 0-3.983 3.25-7.213 7.26-7.213 3.951.014 7.14 3.208 7.124 7.132l-.003.207c.017 3.898-3.15 7.072-7.073 7.09l-.016.001m.094-17.954c-2.63-.008-5.144 1.077-6.932 2.992v-2.539h-3.78v27.272h3.733v-9.211c1.874 1.95 4.486 3.03 7.199 2.978 2.877.118 5.661-1.023 7.621-3.117 1.951-2.03 3.032-4.738 3.012-7.543.166-5.816-4.443-10.665-10.296-10.83-.191-.005-.383-.005-.573-.002m-41.59 2.79v-2.337h-3.498v20.555h3.749v-11.439c0-3.6 1.16-5.314 4.704-5.594v-3.865c-2.016-.062-3.912.961-4.955 2.68m-9.928.935 2.933.094v-3.366h-2.933v-6.654h-3.685v6.654h-2.933v3.366h2.917v11.438c.284 3.02 2.38 5.572 5.301 6.452l1.27-3.49c-1.726-.43-2.923-1.99-2.885-3.756zm123.439 0 2.932.094v-3.366h-2.932v-6.654h-3.7v6.654h-2.918v3.366h2.932v11.438c.284 3.02 2.38 5.572 5.301 6.452l1.27-3.49c-1.726-.43-2.923-1.99-2.885-3.756z" fill="#231f20"/></g></svg>